<?xml version="1.0" encoding="utf-8" ?><svg xmlns="http://www.w3.org/2000/svg" xmlns:xlink="http://www.w3.org/1999/xlink" width="1024" height="1024" viewBox="0 0 1024 1024"><path d="M352.334 394.072C359.168 393.274 370.611 395.139 377.995 395.201C391.594 395.313 404.91 394.864 418.476 394.399L419.102 402.437L429.121 402.509L429.097 473.932C443.779 473.758 461.064 473.171 473.524 464.686C489.576 453.756 489.943 428.864 479.608 413.902C471.638 402.363 459.108 399.081 445.755 398.582C442.058 398.444 427.647 399.323 425.753 396.559C428.141 393.399 435.218 394.378 438.747 394.462C456.41 394.885 477.934 396.237 490.695 410.209C505.692 426.63 501.89 454.843 481.929 465.456C473.954 469.669 468.822 470.688 461.927 476.8C475.659 480.249 489.708 483.254 500.869 492.64C520.321 508.928 522.2 544.171 505.3 563.456C480.063 592.256 435.702 574.313 403.257 579.192C401.741 579.42 398.107 579.319 397.056 578.392C398.059 576.664 406.425 574.225 409.632 572.529C417.991 558.898 415.836 537.428 415.534 521.625C416.766 482.117 416.023 437.662 415.497 398.03C407.929 397.855 394.624 396.746 393.61 406.792C392.5 417.78 392.225 428.863 392.16 439.907C392.092 459.343 392.145 478.779 392.318 498.214C392.444 511.173 392.955 525.385 391.789 538.197C390.634 550.741 384.644 563.505 374.51 571.235C340.591 597.11 285.002 578.239 268.437 540.453C266.644 536.337 264.775 531.822 265.549 527.236C267.369 516.441 280.849 514.986 280.626 527.677C280.548 532.106 279.714 537.819 280.049 542.105C280.47 547.195 282.131 552.103 284.888 556.402C298.361 577.61 339.609 586.919 360.807 572.601C380.514 559.291 379.204 535.931 379.137 515.11L379.037 482.385L379.104 440.555C379.094 431.361 380.242 410.571 375.389 402.256C371.719 395.969 357.367 400.507 352.334 394.072ZM432.525 573.142C450.581 578.122 475.1 577.952 490.2 565.39C506.864 548.362 504.099 509.12 486.715 493.113C470.465 478.152 450.03 477.386 429.286 477.545C429.055 492.211 428.949 506.879 428.967 521.548C428.976 537.651 428.77 557.648 432.525 573.142Z"/><path d="M682.559 394.492C690.536 394.746 715.229 393.776 721.317 395.652L721.369 396.416C718.036 399.431 707.675 398.967 704.603 401.122C695.5 407.511 697.156 426.901 697.047 436.13C696.853 449.128 696.768 462.128 696.789 475.128L696.933 529.437C696.979 538.75 697.157 551.292 697.383 560.243C697.924 581.61 708.796 571.317 713.072 578.209L712.739 579.134C710.908 580.107 689.189 578.833 684.997 578.699C678.097 578.478 660.317 581.485 655.28 580.072L654.858 579.299C658.128 570.921 681.134 584.171 682.532 554.653C683.352 537.333 683.431 516.276 683.189 498.438C682.756 466.439 683.682 434.234 682.929 402.312C677.772 411.681 670.571 431.858 666.023 442.926C654.681 469.801 643.692 496.824 633.057 523.987C636.375 535.768 644.816 547.218 640.82 560.246C637.621 570.679 621.871 574.589 617.887 563.052C614.901 554.406 620.006 542.939 623.849 535.334C622.505 531.35 620.85 527.463 619.298 523.558C608.836 497.24 597.819 471.142 587.486 444.772C581.589 432.447 577.248 417.19 570.59 403.791L569.423 473.65C568.894 498.759 568.325 525.754 570.66 550.747C571.139 555.877 572.739 564.568 576.067 568.544C582.875 576.68 590.572 575.409 599.565 576.158C601.021 577.272 600.5 576.568 601.062 578.428C600.843 579.038 600.735 579.819 600.211 579.896C591.343 581.197 581.213 578.591 571.521 578.494C559.231 578.371 549.199 581.151 537.642 580.44C537.121 580.408 536.888 579.541 536.569 578.902C538.536 573.73 550.656 577.452 556.713 571.244C563.132 564.899 563.428 554.53 563.959 546.007C565.696 518.131 564.902 490.108 565.05 462.194C565.129 447.351 565.932 432.557 565.045 417.775C563.762 396.396 550.667 403.501 545.628 397.743L545.707 396.697C550.243 394.972 576.411 395.394 581.709 396.07C586.368 408.658 592.104 422.1 597.107 434.661C608.37 463.098 619.799 491.47 631.391 519.775C637.217 508.463 642.771 490.794 648.012 478.477C659.768 450.852 670.449 421.901 682.559 394.492ZM626.56 566.452C635.343 563.088 629.085 544.486 625.114 539.311C621.327 547.795 615.402 561.185 626.56 566.452Z"/><path d="M521.409 282.322C522.867 283.364 522.813 283.407 523.778 284.82C524.244 287.54 524.036 295.101 524.03 298.382L524.029 324.257L524.078 417.832L524.051 619.083L524.063 681.199C524.074 689.696 524.203 698.251 524.356 706.751C524.389 708.603 523.329 711.076 522.598 712.788C521.43 711.951 521.606 712.035 520.616 710.942C519.308 706.825 519.819 676.822 519.834 670.636L519.925 595.184L519.961 389.492L519.975 322.046C519.973 310.292 519.97 298.499 520.002 286.745C520.007 285.074 520.688 283.823 521.409 282.322Z"/><path d="M530.011 602.03C553.383 602.714 741.869 600.843 745.755 602.778C747.178 603.487 747.237 604.21 747.79 605.611C744.531 607.234 707.412 606.606 700.985 606.604L577.465 606.569C568.678 606.564 560.067 606.62 551.062 606.493C545.501 606.415 536.25 608.01 530.978 605.606C529.838 605.087 530.057 603.209 530.011 602.03Z"/><path d="M475.951 471.276C478.036 471.567 480.097 472.004 482.12 472.584C490.177 474.819 507.373 482.244 512.518 489.884C513.267 490.997 512.84 491.414 512.478 492.67C509.313 493.346 506.764 490.878 504.531 488.946C496.265 481.792 486.658 478.96 476.915 474.702C475.833 474.229 476.025 472.367 475.951 471.276Z"/></svg>